<mxfile host="app.diagrams.net" agent="Mozilla/5.0 (Macintosh; Intel Mac OS X 10_15_7) AppleWebKit/537.36 (KHTML, like Gecko) Chrome/133.0.0.0 Safari/537.36" version="26.1.0">
  <diagram name="第 1 页" id="LPM2Vj5LjhQS8KYkLOUM">
    <mxGraphModel dx="4168" dy="-245" grid="1" gridSize="48" guides="1" tooltips="1" connect="1" arrows="1" fold="1" page="1" pageScale="1" pageWidth="827" pageHeight="1169" math="0" shadow="0">
      <root>
        <mxCell id="0" />
        <mxCell id="1" parent="0" />
        <mxCell id="16" value="" style="rounded=0;whiteSpace=wrap;html=1;dashed=1;fillColor=#C4C4C4;strokeWidth=3;fontFamily=宋体;" parent="1" vertex="1">
          <mxGeometry x="-1290" y="1392" width="426" height="720" as="geometry" />
        </mxCell>
        <mxCell id="crDA0Zm2AfeQVzm_l3jU-12" value="&lt;font style=&quot;font-size: 48px;&quot;&gt;退出&lt;br style=&quot;font-size: 48px;&quot;&gt;&lt;/font&gt;" style="ellipse;whiteSpace=wrap;html=1;aspect=fixed;fillColor=none;strokeColor=#000000;strokeWidth=6;shadow=0;fontColor=default;fontStyle=0;fontSize=48;fontFamily=宋体;swimlaneLine=1;container=0;" parent="1" vertex="1">
          <mxGeometry x="-527" y="1824" width="228" height="228" as="geometry" />
        </mxCell>
        <mxCell id="crDA0Zm2AfeQVzm_l3jU-11" value="&lt;font style=&quot;font-size: 48px;&quot;&gt;创建&lt;br style=&quot;font-size: 48px;&quot;&gt;&lt;/font&gt;" style="ellipse;whiteSpace=wrap;html=1;aspect=fixed;fillColor=none;strokeColor=#000000;strokeWidth=6;shadow=0;fontColor=default;fontStyle=0;fontSize=48;fontFamily=宋体;swimlaneLine=1;container=0;" parent="1" vertex="1">
          <mxGeometry x="-1654" y="1638" width="228" height="228" as="geometry" />
        </mxCell>
        <mxCell id="crDA0Zm2AfeQVzm_l3jU-44" style="rounded=0;orthogonalLoop=1;jettySize=auto;html=1;exitX=1;exitY=0.5;exitDx=0;exitDy=0;entryX=0;entryY=0.5;entryDx=0;entryDy=0;fontStyle=0;fontSize=48;fontColor=default;swimlaneLine=1;fontFamily=宋体;strokeWidth=6;" parent="1" source="crDA0Zm2AfeQVzm_l3jU-11" target="crDA0Zm2AfeQVzm_l3jU-10" edge="1">
          <mxGeometry relative="1" as="geometry" />
        </mxCell>
        <mxCell id="crDA0Zm2AfeQVzm_l3jU-9" value="&lt;font style=&quot;font-size: 48px;&quot;&gt;运行&lt;br style=&quot;font-size: 48px;&quot;&gt;&lt;/font&gt;" style="ellipse;whiteSpace=wrap;html=1;aspect=fixed;fillColor=none;strokeColor=#000000;strokeWidth=6;shadow=0;fontColor=default;fontStyle=0;fontSize=48;fontFamily=宋体;swimlaneLine=1;container=0;" parent="1" vertex="1">
          <mxGeometry x="-527" y="1457" width="228" height="228" as="geometry" />
        </mxCell>
        <mxCell id="crDA0Zm2AfeQVzm_l3jU-48" style="rounded=0;orthogonalLoop=1;jettySize=auto;html=1;exitX=0.997;exitY=0.559;exitDx=0;exitDy=0;fontStyle=0;fontSize=48;fontColor=default;swimlaneLine=1;fontFamily=宋体;strokeWidth=6;exitPerimeter=0;entryX=-0.009;entryY=0.557;entryDx=0;entryDy=0;entryPerimeter=0;" parent="1" source="crDA0Zm2AfeQVzm_l3jU-10" target="crDA0Zm2AfeQVzm_l3jU-9" edge="1">
          <mxGeometry relative="1" as="geometry">
            <mxPoint x="-727.6660000000002" y="2038.9959999999996" as="sourcePoint" />
            <mxPoint x="-563.0020000000004" y="2116.212" as="targetPoint" />
          </mxGeometry>
        </mxCell>
        <mxCell id="crDA0Zm2AfeQVzm_l3jU-66" value="&lt;font style=&quot;font-size: 36px;&quot;&gt;&lt;br&gt;&lt;/font&gt;" style="edgeLabel;html=1;align=center;verticalAlign=middle;resizable=0;points=[];labelBackgroundColor=none;fontFamily=宋体;fontSize=36;container=0;" parent="crDA0Zm2AfeQVzm_l3jU-48" vertex="1" connectable="0">
          <mxGeometry x="-0.0773" relative="1" as="geometry">
            <mxPoint x="68" y="48" as="offset" />
          </mxGeometry>
        </mxCell>
        <mxCell id="17" value="&lt;font&gt;&lt;span style=&quot;font-size: 36px;&quot;&gt;调度&lt;/span&gt;&lt;/font&gt;" style="edgeLabel;html=1;align=center;verticalAlign=middle;resizable=0;points=[];labelBackgroundColor=none;fontFamily=宋体;" parent="crDA0Zm2AfeQVzm_l3jU-48" vertex="1" connectable="0">
          <mxGeometry x="-0.3452" y="4" relative="1" as="geometry">
            <mxPoint x="59" y="29" as="offset" />
          </mxGeometry>
        </mxCell>
        <mxCell id="crDA0Zm2AfeQVzm_l3jU-49" style="rounded=0;orthogonalLoop=1;jettySize=auto;html=1;entryX=0.975;entryY=0.348;entryDx=0;entryDy=0;fontStyle=0;fontSize=48;fontColor=default;swimlaneLine=1;fontFamily=宋体;strokeWidth=6;entryPerimeter=0;exitX=0.021;exitY=0.345;exitDx=0;exitDy=0;exitPerimeter=0;" parent="1" source="crDA0Zm2AfeQVzm_l3jU-9" target="crDA0Zm2AfeQVzm_l3jU-10" edge="1">
          <mxGeometry relative="1" as="geometry">
            <mxPoint x="-864" y="1536" as="sourcePoint" />
          </mxGeometry>
        </mxCell>
        <mxCell id="crDA0Zm2AfeQVzm_l3jU-65" value="主动让权 /&amp;nbsp;&lt;br&gt;被抢占" style="edgeLabel;html=1;align=center;verticalAlign=middle;resizable=0;points=[];labelBackgroundColor=none;fontFamily=宋体;fontSize=36;container=0;" parent="crDA0Zm2AfeQVzm_l3jU-49" vertex="1" connectable="0">
          <mxGeometry x="0.4506" y="-1" relative="1" as="geometry">
            <mxPoint x="133" y="-47" as="offset" />
          </mxGeometry>
        </mxCell>
        <mxCell id="crDA0Zm2AfeQVzm_l3jU-51" style="rounded=0;orthogonalLoop=1;jettySize=auto;html=1;exitX=0.5;exitY=1;exitDx=0;exitDy=0;fontStyle=0;fontSize=48;fontColor=default;swimlaneLine=1;fontFamily=宋体;strokeWidth=6;" parent="1" source="crDA0Zm2AfeQVzm_l3jU-9" target="crDA0Zm2AfeQVzm_l3jU-12" edge="1">
          <mxGeometry relative="1" as="geometry" />
        </mxCell>
        <mxCell id="4" style="rounded=0;orthogonalLoop=1;jettySize=auto;html=1;fontStyle=0;fontSize=48;fontColor=default;swimlaneLine=1;fontFamily=宋体;strokeWidth=6;exitX=0;exitY=1;exitDx=0;exitDy=0;entryX=1;entryY=0;entryDx=0;entryDy=0;" parent="1" source="crDA0Zm2AfeQVzm_l3jU-9" target="3" edge="1">
          <mxGeometry relative="1" as="geometry">
            <mxPoint x="-309.99999999999227" y="2186" as="sourcePoint" />
            <mxPoint x="-580" y="1920" as="targetPoint" />
          </mxGeometry>
        </mxCell>
        <mxCell id="5" value="&lt;font style=&quot;font-size: 36px;&quot;&gt;等待&lt;br&gt;&lt;/font&gt;" style="edgeLabel;html=1;align=center;verticalAlign=middle;resizable=0;points=[];labelBackgroundColor=none;fontFamily=宋体;fontSize=36;container=0;" parent="4" vertex="1" connectable="0">
          <mxGeometry x="0.7376" relative="1" as="geometry">
            <mxPoint x="266" y="-67" as="offset" />
          </mxGeometry>
        </mxCell>
        <mxCell id="X8zho-kptmAe5dVYuAws-7" style="rounded=0;orthogonalLoop=1;jettySize=auto;html=1;exitX=1;exitY=0.5;exitDx=0;exitDy=0;entryX=0;entryY=0.5;entryDx=0;entryDy=0;fontStyle=0;fontSize=48;fontColor=default;swimlaneLine=1;fontFamily=宋体;strokeWidth=6;" parent="1" source="crDA0Zm2AfeQVzm_l3jU-11" target="3" edge="1">
          <mxGeometry relative="1" as="geometry">
            <mxPoint x="-1020" y="1913" as="sourcePoint" />
            <mxPoint x="-964" y="1913" as="targetPoint" />
            <Array as="points" />
          </mxGeometry>
        </mxCell>
        <mxCell id="crDA0Zm2AfeQVzm_l3jU-10" value="&lt;font style=&quot;font-size: 48px;&quot;&gt;就绪&lt;br style=&quot;font-size: 48px;&quot;&gt;&lt;/font&gt;" style="ellipse;whiteSpace=wrap;html=1;aspect=fixed;fillColor=none;strokeColor=#000000;strokeWidth=6;shadow=0;fontColor=default;fontStyle=0;fontSize=48;fontFamily=宋体;swimlaneLine=1;container=0;" parent="1" vertex="1">
          <mxGeometry x="-1200" y="1457" width="228" height="228" as="geometry" />
        </mxCell>
        <mxCell id="9" style="edgeStyle=none;html=1;exitX=1;exitY=0.5;exitDx=0;exitDy=0;entryX=0;entryY=0.5;entryDx=0;entryDy=0;strokeWidth=6;fontFamily=宋体;" parent="1" source="3" target="crDA0Zm2AfeQVzm_l3jU-12" edge="1">
          <mxGeometry relative="1" as="geometry" />
        </mxCell>
        <mxCell id="3" value="&lt;font style=&quot;font-size: 48px;&quot;&gt;阻塞&lt;br style=&quot;font-size: 48px;&quot;&gt;&lt;/font&gt;" style="ellipse;whiteSpace=wrap;html=1;aspect=fixed;fillColor=none;strokeColor=#000000;strokeWidth=6;shadow=0;fontColor=default;fontStyle=0;fontSize=48;fontFamily=宋体;swimlaneLine=1;container=0;" parent="1" vertex="1">
          <mxGeometry x="-1200" y="1824" width="228" height="228" as="geometry" />
        </mxCell>
        <mxCell id="6" style="rounded=0;orthogonalLoop=1;jettySize=auto;html=1;exitX=0.5;exitY=0;exitDx=0;exitDy=0;entryX=0.5;entryY=1;entryDx=0;entryDy=0;fontStyle=0;fontSize=48;fontColor=default;swimlaneLine=1;fontFamily=宋体;strokeWidth=6;" parent="1" source="3" target="crDA0Zm2AfeQVzm_l3jU-10" edge="1">
          <mxGeometry relative="1" as="geometry">
            <mxPoint x="-850.0000000000005" y="2333" as="sourcePoint" />
            <mxPoint x="-850.0000000000005" y="2027" as="targetPoint" />
          </mxGeometry>
        </mxCell>
        <mxCell id="7" value="&lt;font style=&quot;font-size: 36px;&quot;&gt;唤醒&lt;/font&gt;" style="edgeLabel;html=1;align=center;verticalAlign=middle;resizable=0;points=[];fontColor=default;labelBackgroundColor=none;fontFamily=宋体;fontSize=36;container=0;" parent="6" vertex="1" connectable="0">
          <mxGeometry x="0.1376" y="-3" relative="1" as="geometry">
            <mxPoint x="-78" y="13" as="offset" />
          </mxGeometry>
        </mxCell>
        <mxCell id="PcCMAOFZ2jnQJe2ow0qI-17" style="edgeStyle=none;html=1;exitX=1;exitY=1;exitDx=0;exitDy=0;strokeWidth=6;fontFamily=宋体;" edge="1" parent="1" source="crDA0Zm2AfeQVzm_l3jU-10">
          <mxGeometry relative="1" as="geometry">
            <mxPoint x="-924" y="1986" as="sourcePoint" />
            <mxPoint x="-528" y="1920" as="targetPoint" />
          </mxGeometry>
        </mxCell>
      </root>
    </mxGraphModel>
  </diagram>
</mxfile>
